<?xml version="1.0" standalone="no"?>
<!DOCTYPE svg PUBLIC "-//W3C//DTD SVG 20010904//EN"
 "http://www.w3.org/TR/2001/REC-SVG-20010904/DTD/svg10.dtd">
<svg version="1.0" xmlns="http://www.w3.org/2000/svg"
 width="1447.000000pt" height="664.000000pt" viewBox="0 0 1447.000000 664.000000"
 preserveAspectRatio="xMidYMid meet">

<g transform="translate(0.000000,664.000000) scale(0.100000,-0.100000)"
fill="#000000" stroke="none">
<path d="M0 3320 l0 -3320 7235 0 7235 0 0 3320 0 3320 -7235 0 -7235 0 0
-3320z m3780 -939 l0 -100 35 15 c84 35 150 4 166 -76 4 -25 8 -89 9 -142 l0
-98 45 0 45 0 0 140 0 140 -25 0 c-18 0 -25 5 -25 20 0 14 7 20 24 20 21 0 25
6 31 43 18 105 53 128 201 130 l104 2 2 -245 3 -245 23 -3 c14 -2 22 -10 22
-23 0 -17 -8 -19 -95 -19 -87 0 -95 2 -95 19 0 13 8 21 23 23 22 3 22 4 25
207 3 226 -3 251 -55 251 -44 0 -63 -26 -63 -87 l0 -53 40 0 c33 0 40 -3 40
-20 0 -17 -7 -20 -40 -20 l-40 0 0 -140 0 -140 25 0 c18 0 25 -5 25 -20 0 -19
-7 -20 -190 -20 -183 0 -190 1 -190 20 0 13 7 20 20 20 19 0 20 7 20 135 0
147 -3 154 -56 141 -38 -10 -54 -59 -54 -172 0 -87 2 -96 20 -101 11 -3 20
-14 20 -24 0 -17 -9 -19 -90 -19 -82 0 -90 2 -90 19 0 13 8 21 23 23 22 3 22
4 25 203 3 224 1 245 -28 245 -13 0 -20 7 -20 20 0 16 8 20 63 23 34 2 65 4
70 5 4 1 7 -43 7 -97z m2467 53 c14 -22 14 -26 -1 -48 -21 -34 -52 -41 -82
-21 -20 13 -24 23 -22 48 5 56 73 70 105 21z m1638 24 c48 -22 42 -89 -10
-102 -33 -8 -63 8 -71 39 -10 40 4 59 53 74 1 1 14 -4 28 -11z m-4986 -38 c52
-24 51 -24 51 -5 0 9 9 15 25 15 24 0 25 -2 25 -67 0 -86 -8 -113 -30 -113
-13 0 -21 13 -29 46 -30 120 -167 139 -222 32 -27 -53 -36 -165 -19 -237 8
-34 24 -65 46 -88 32 -34 36 -35 86 -31 63 7 101 43 112 106 5 32 11 42 25 42
26 0 31 -19 31 -106 0 -72 -1 -74 -25 -74 -15 0 -25 6 -25 14 0 12 -9 11 -46
-6 -68 -30 -159 -22 -216 18 -66 46 -93 109 -93 214 0 75 4 91 30 139 33 60
61 85 121 106 54 20 102 18 153 -5z m-2469 -9 c0 -12 -9 -21 -26 -25 l-25 -7
3 -178 c4 -208 8 -221 84 -221 60 0 91 29 104 99 12 62 13 271 2 287 -4 6 -17
14 -29 18 -14 4 -23 15 -23 27 0 18 6 20 77 17 85 -3 103 -17 54 -43 l-31 -16
0 -157 c0 -144 -2 -162 -22 -202 -29 -56 -74 -80 -148 -80 -43 0 -64 6 -94 26
-57 39 -66 71 -66 236 0 166 -4 186 -36 194 -15 4 -24 14 -24 25 0 17 9 19
100 19 91 0 100 -2 100 -19z m5536 -9 c86 -44 119 -116 112 -237 -7 -105 -47
-166 -133 -206 -32 -15 -65 -19 -172 -19 -126 0 -133 1 -133 20 0 15 7 20 25
20 l25 0 0 199 0 199 -25 6 c-17 4 -25 13 -25 27 0 21 3 21 143 17 120 -4 148
-8 183 -26z m1704 -48 l0 -56 120 3 120 4 2 -160 3 -160 45 0 45 0 3 115 c3
135 -1 160 -28 160 -13 0 -20 7 -20 20 0 17 7 20 48 20 26 0 57 3 70 6 16 5
22 2 22 -10 0 -20 9 -20 34 -1 41 31 142 10 162 -32 4 -10 10 -76 13 -148 6
-120 8 -130 26 -134 11 -2 23 -8 26 -14 4 -5 14 -7 23 -4 12 5 14 12 7 30 -7
18 -5 34 7 58 17 34 17 34 -10 60 -56 54 -42 156 26 184 41 17 94 19 130 5 20
-7 35 -5 61 7 50 24 89 9 93 -34 2 -25 -2 -35 -21 -48 -13 -8 -31 -13 -39 -10
-12 5 -17 -4 -21 -37 -7 -52 -52 -98 -96 -98 -15 0 -36 -8 -45 -19 -16 -18
-14 -18 59 -23 86 -6 124 -26 136 -73 10 -36 -10 -85 -45 -113 -36 -28 -123
-45 -183 -36 -89 13 -123 44 -109 100 l6 24 -85 0 c-78 0 -85 2 -85 20 0 13 7
20 20 20 20 0 20 5 18 138 l-3 137 -29 0 c-20 0 -35 -9 -50 -28 -18 -25 -21
-42 -21 -135 0 -103 1 -107 23 -110 14 -2 22 -10 22 -23 0 -18 -9 -19 -190
-19 -127 0 -190 4 -190 11 0 5 -10 3 -22 -5 -35 -25 -102 -20 -135 8 -28 24
-28 25 -31 165 l-4 141 -29 0 c-22 0 -29 5 -29 20 0 16 7 20 30 20 29 0 30 1
30 49 0 46 2 50 28 54 64 10 62 11 62 -49z m-6860 -64 c0 -20 0 -20 33 0 44
27 99 26 132 -3 33 -28 44 -79 45 -209 0 -89 2 -98 19 -98 19 0 35 -23 24 -34
-4 -3 -46 -6 -95 -6 -81 0 -88 2 -88 20 0 13 7 20 20 20 19 0 20 7 20 135 0
147 -3 154 -56 141 -38 -10 -54 -59 -54 -172 0 -87 2 -96 20 -101 11 -3 20
-14 20 -24 0 -17 -9 -19 -90 -19 -82 0 -90 2 -90 19 0 13 8 21 23 23 22 3 22
6 22 138 0 132 0 135 -22 138 -15 2 -23 10 -23 22 0 16 9 20 58 23 31 2 63 4
70 5 6 1 12 -7 12 -18z m436 10 c20 -8 29 -8 34 1 8 12 45 9 42 -3 -1 -5 -2
-35 -2 -68 0 -52 -2 -60 -19 -60 -12 0 -23 11 -30 32 -23 65 -78 91 -101 48
-9 -17 -6 -25 17 -48 16 -15 49 -41 75 -59 81 -55 99 -131 43 -183 -29 -27
-119 -39 -153 -21 -14 7 -23 8 -27 1 -3 -5 -15 -10 -26 -10 -17 0 -19 7 -19
80 0 78 1 80 24 80 20 0 25 -7 31 -37 10 -57 31 -83 65 -83 33 0 55 29 45 60
-3 10 -36 40 -72 66 -77 55 -100 97 -83 149 18 54 91 79 156 55z m349 -4 c42
-18 63 -50 71 -109 l7 -47 -108 0 -108 0 5 -45 c10 -83 60 -129 116 -106 16 7
35 23 42 37 15 27 18 28 40 14 13 -8 13 -13 0 -37 -24 -43 -76 -73 -127 -73
-102 0 -163 70 -163 186 0 144 106 229 225 180z m336 -1 c39 -21 69 -71 69
-117 l0 -38 -100 0 c-71 0 -102 -4 -105 -12 -10 -27 20 -111 47 -131 38 -29
104 -5 120 43 7 21 47 3 41 -19 -8 -32 -68 -81 -106 -88 -125 -20 -209 71
-194 213 13 127 127 201 228 149z m229 0 c0 -18 8 -18 40 0 42 24 95 19 132
-13 l31 -29 5 -136 c4 -129 6 -136 26 -139 11 -2 22 -11 24 -20 3 -16 -6 -18
-92 -18 -89 0 -96 1 -96 20 0 13 7 20 20 20 19 0 20 7 20 135 0 146 -3 154
-54 141 -39 -10 -56 -61 -56 -171 0 -88 2 -97 20 -102 11 -3 20 -14 20 -24 0
-17 -9 -19 -90 -19 -82 0 -90 2 -90 19 0 13 8 21 23 23 22 3 22 6 22 138 0
132 0 135 -22 138 -15 2 -23 10 -23 22 0 16 9 20 58 23 31 2 63 4 70 5 6 1 12
-5 12 -13z m1118 -19 c26 -26 27 -30 30 -161 4 -127 5 -134 22 -125 15 8 21 6
29 -7 8 -14 10 -3 11 45 0 59 1 62 24 62 20 0 25 -7 31 -37 10 -57 31 -83 65
-83 33 0 55 29 45 59 -3 11 -37 42 -76 70 -80 59 -96 88 -79 144 9 29 19 42
45 53 41 17 89 18 118 3 16 -9 22 -9 25 0 2 6 15 11 29 11 21 0 24 -4 19 -22
-3 -13 -6 -45 -6 -71 0 -44 -2 -48 -22 -45 -15 2 -24 13 -30 34 -16 65 -90 89
-96 32 -3 -23 5 -33 44 -60 27 -18 64 -47 84 -65 30 -27 35 -37 35 -77 0 -65
-34 -98 -108 -104 -30 -2 -63 1 -75 7 -14 7 -23 8 -27 1 -10 -16 -45 -12 -45
5 0 19 -9 19 -34 0 -26 -19 -66 -19 -94 0 -19 14 -24 14 -51 0 -81 -41 -172
17 -157 100 8 42 30 61 113 94 74 30 85 48 64 104 -8 21 -17 27 -40 27 -28 0
-29 -1 -24 -39 5 -33 2 -41 -17 -51 -49 -26 -92 15 -75 70 19 61 171 78 223
26z m1412 16 c53 -29 82 -88 82 -172 1 -78 -20 -130 -66 -164 -39 -30 -153
-30 -192 0 -46 34 -68 89 -68 165 2 118 63 189 164 189 25 0 61 -8 80 -18z
m430 -105 l43 -112 24 69 c29 88 30 116 3 116 -13 0 -20 7 -20 20 0 18 7 20
70 20 74 0 91 -13 50 -41 -13 -9 -39 -68 -74 -169 -68 -197 -73 -198 -134 -40
l-45 114 -34 -94 c-66 -186 -67 -186 -142 19 -31 84 -65 159 -74 166 -9 7 -17
20 -17 29 0 14 13 16 85 16 78 0 85 -2 85 -20 0 -13 -7 -20 -20 -20 -26 0 -25
-12 8 -103 l28 -76 29 82 c48 138 52 146 74 140 13 -3 31 -37 61 -116z m300
103 c24 -24 25 -38 4 -68 -28 -41 -104 -18 -104 31 0 51 63 74 100 37z m830
-145 l0 -165 25 0 c18 0 25 -5 25 -20 0 -19 -7 -20 -101 -20 -90 0 -100 2 -97
18 2 9 13 18 26 20 22 3 22 6 22 138 0 134 0 135 -25 144 -46 18 -30 39 33 43
31 2 65 4 75 5 16 2 17 -12 17 -163z m234 155 c17 -6 26 -6 26 0 0 6 11 10 25
10 24 0 25 -2 25 -70 0 -66 -1 -70 -23 -70 -18 0 -26 9 -37 42 -18 51 -59 73
-86 46 -24 -24 -9 -53 47 -89 82 -53 109 -84 109 -130 0 -53 -14 -78 -55 -95
-40 -16 -108 -18 -136 -4 -13 8 -19 7 -19 0 0 -6 -10 -10 -22 -8 -13 2 -23 9
-22 16 1 6 2 41 3 77 1 61 2 65 25 65 20 0 24 -6 29 -41 3 -22 13 -49 23 -60
20 -23 57 -25 74 -5 24 29 6 60 -63 112 -80 59 -87 68 -87 114 0 79 80 122
164 90z m296 0 c13 -7 21 -7 25 0 3 5 15 10 26 10 17 0 19 -7 19 -70 0 -68 -1
-70 -25 -70 -17 0 -25 6 -25 18 0 9 -9 32 -20 50 -22 36 -58 43 -81 16 -18
-22 -5 -40 72 -94 76 -55 104 -97 95 -144 -4 -18 -18 -44 -32 -57 -23 -22 -35
-24 -125 -26 l-99 -1 0 79 c0 78 0 79 25 79 18 0 25 -5 25 -20 0 -31 27 -90
45 -96 8 -3 26 -3 40 0 20 5 25 13 25 40 0 29 -7 38 -64 77 -36 24 -72 56 -80
71 -31 51 -12 118 38 138 29 12 94 12 116 0z m358 -10 c36 -22 62 -72 62 -120
l0 -30 -106 0 -106 0 7 -47 c16 -110 91 -145 149 -70 16 20 29 28 40 24 26
-10 19 -41 -19 -77 -71 -69 -201 -47 -246 42 -29 56 -25 182 7 225 53 72 144
94 212 53z m343 -3 c45 -30 52 -78 15 -103 -24 -15 -28 -15 -52 1 -22 14 -25
22 -21 51 5 30 3 34 -17 34 -12 0 -33 -12 -47 -26 -20 -22 -24 -38 -27 -103
-4 -89 12 -136 54 -151 31 -12 79 10 89 40 7 21 39 27 50 10 9 -15 -22 -66
-56 -90 -25 -19 -40 -22 -90 -18 -48 3 -65 10 -90 34 -43 39 -59 82 -59 152 0
76 31 138 86 169 53 30 120 30 165 0z m-2077 -258 c51 -24 34 -99 -24 -99 -56
0 -82 64 -38 94 27 19 30 19 62 5z m-4804 -518 l0 -100 35 15 c57 23 102 18
136 -15 29 -29 29 -30 29 -149 0 -134 4 -152 31 -152 12 0 19 -7 19 -20 0 -19
-7 -20 -90 -20 -83 0 -90 1 -90 20 0 13 7 20 20 20 19 0 20 7 20 135 0 147 -3
154 -55 141 -41 -10 -55 -53 -55 -171 0 -98 1 -105 20 -105 13 0 20 -7 20 -20
0 -19 -7 -20 -90 -20 -61 0 -90 4 -90 12 0 6 -7 4 -18 -5 -28 -26 -95 -22
-129 7 -28 24 -28 25 -31 165 l-4 141 -29 0 c-22 0 -29 5 -29 20 0 16 7 20 30
20 29 0 30 1 30 50 0 36 4 50 14 50 7 0 28 3 45 6 l31 7 0 -57 0 -56 51 0 c43
0 50 -3 47 -17 -2 -14 -15 -19 -51 -21 l-48 -3 3 -137 c3 -128 4 -137 23 -137
11 0 25 12 35 30 8 17 16 32 17 33 1 2 11 1 22 -3 17 -5 19 -10 10 -32 -11
-29 -7 -38 16 -30 13 6 15 36 15 211 0 112 -3 211 -6 220 -3 9 -15 16 -25 16
-12 0 -19 7 -19 20 0 16 8 20 63 23 34 2 65 4 70 5 4 1 7 -43 7 -97z m4102 78
c22 -12 34 -57 21 -78 -13 -20 -60 -26 -79 -10 -10 8 -14 24 -12 40 3 18 0 25
-8 22 -13 -5 -24 -49 -24 -99 0 -32 2 -34 35 -34 28 0 35 -4 35 -20 0 -16 -7
-20 -35 -20 l-35 0 0 -128 c0 -136 5 -152 47 -152 16 0 23 -6 23 -20 0 -19 -7
-20 -105 -20 -97 0 -105 1 -105 19 0 13 8 21 23 23 21 3 22 6 25 141 l3 137
-26 0 c-18 0 -25 5 -25 20 0 14 7 20 24 20 20 0 24 6 29 44 10 68 27 97 72
117 40 19 79 18 117 -2z m1394 -207 c2 -291 0 -272 24 -272 14 0 20 -7 20 -22
0 -22 -5 -23 -70 -25 -39 -1 -70 3 -70 8 0 6 -8 6 -19 -1 -29 -15 -88 -12
-127 6 -48 23 -75 79 -76 158 -2 80 15 128 58 165 41 36 71 45 125 38 l40 -5
-3 61 c-3 56 -5 62 -25 65 -15 2 -23 10 -23 22 0 16 9 20 58 23 31 2 64 3 72
3 13 -1 15 -34 16 -224z m-4513 86 c19 -51 59 -153 87 -226 l52 -133 32 3 31
3 3 115 c3 135 -1 160 -28 160 -13 0 -20 7 -20 20 0 17 7 20 48 20 26 0 57 3
70 6 16 5 22 2 22 -10 0 -20 0 -20 39 0 42 21 106 13 135 -15 19 -19 22 -36
26 -159 5 -133 6 -137 28 -140 14 -2 22 -10 22 -23 0 -17 -8 -19 -90 -19 -83
0 -90 1 -90 20 0 13 7 20 20 20 19 0 20 7 20 135 0 147 -3 154 -55 141 -41
-10 -55 -53 -55 -171 0 -98 1 -105 20 -105 13 0 20 -7 20 -20 0 -19 -7 -20
-176 -20 -162 0 -175 1 -172 18 2 9 14 18 26 20 13 2 22 9 19 15 -2 7 -13 36
-23 65 l-19 52 -70 0 -71 0 -18 -50 c-21 -57 -17 -77 16 -82 12 -2 24 -11 26
-20 3 -16 -6 -18 -77 -18 -88 0 -99 9 -57 45 21 18 50 86 183 433 3 6 13 12
23 12 13 0 27 -24 53 -92z m3478 -77 c35 -94 66 -168 69 -165 3 3 32 78 66
167 l61 162 72 3 c66 3 71 1 71 -17 0 -14 -9 -23 -25 -27 l-25 -6 0 -199 0
-199 25 0 c18 0 25 -5 25 -20 0 -19 -7 -20 -100 -20 -93 0 -100 1 -100 20 0
15 7 20 25 20 l25 0 0 143 -1 142 -62 -165 c-49 -129 -66 -165 -81 -165 -14 0
-32 37 -84 173 l-67 172 -3 -127 c-3 -155 0 -173 33 -173 18 0 25 -5 25 -20 0
-18 -7 -20 -80 -20 -65 0 -80 3 -80 15 0 9 11 20 25 25 l25 10 0 194 0 194
-25 6 c-16 4 -25 13 -25 26 0 18 7 20 73 20 l74 0 64 -169z m-2471 94 l0 -55
50 0 c43 0 50 -3 50 -20 0 -17 -7 -20 -50 -20 l-50 0 0 -124 c0 -68 3 -131 6
-140 11 -28 40 -18 57 20 13 26 23 35 35 32 16 -4 17 2 14 61 -4 76 22 140 71
175 41 30 144 30 184 0 51 -38 68 -80 68 -170 0 -73 -3 -84 -28 -117 -36 -48
-75 -67 -132 -67 -54 0 -93 18 -128 60 -31 36 -33 37 -41 5 -10 -39 -45 -65
-89 -65 -87 0 -107 39 -107 210 l0 120 -30 0 c-23 0 -30 4 -30 20 0 16 7 20
30 20 29 0 30 1 30 49 0 46 2 50 28 54 64 10 62 11 62 -48z m-1489 -68 c41
-28 59 -60 59 -109 l0 -38 -100 0 -100 0 0 -40 c0 -108 93 -156 153 -78 16 20
28 27 40 22 22 -8 21 -12 -3 -52 -27 -43 -80 -66 -143 -59 -94 9 -142 71 -141
182 0 77 15 114 61 156 34 32 47 37 99 38 27 1 52 -7 75 -22z m1258 9 c42 -22
51 -54 51 -191 0 -120 4 -137 26 -115 8 8 15 6 25 -6 11 -14 11 -18 -6 -31
-34 -24 -66 -27 -99 -9 -29 16 -34 16 -64 0 -70 -34 -152 11 -152 84 0 51 36
85 118 113 l62 21 0 42 c0 49 -13 66 -51 66 -26 0 -27 -1 -16 -29 9 -25 8 -33
-8 -50 -25 -29 -61 -27 -82 5 -15 24 -15 29 -2 53 30 54 135 79 198 47z m831
-1 c0 -14 3 -14 30 0 39 20 88 19 125 -4 30 -18 32 -18 65 0 50 27 102 24 139
-7 l31 -26 0 -123 c0 -137 4 -155 31 -155 12 0 19 -7 19 -20 0 -19 -7 -20 -90
-20 -83 0 -90 1 -90 20 0 13 7 20 20 20 20 0 20 5 18 138 l-3 137 -26 3 c-19
2 -33 -4 -48 -24 -19 -24 -21 -40 -21 -140 0 -109 1 -113 22 -116 13 -2 24
-11 26 -20 3 -16 -6 -18 -92 -18 -89 0 -96 1 -96 20 0 13 7 20 20 20 18 0 20
7 22 88 3 183 -1 199 -46 188 -42 -10 -56 -52 -56 -171 0 -98 1 -105 20 -105
13 0 20 -7 20 -20 0 -19 -7 -20 -90 -20 -82 0 -90 2 -90 19 0 13 8 21 23 23
21 3 22 7 25 118 3 135 -1 160 -28 160 -13 0 -20 7 -20 20 0 16 8 20 58 23 31
2 63 4 70 5 6 1 12 -5 12 -13z m1170 -3 c53 -29 82 -88 82 -172 1 -78 -20
-130 -66 -164 -39 -30 -153 -30 -192 0 -45 33 -67 87 -67 164 0 118 61 190
163 190 25 0 61 -8 80 -18z m1300 0 c54 -29 83 -90 83 -172 0 -115 -48 -179
-141 -188 -99 -9 -160 35 -182 132 -13 59 0 145 29 185 42 59 142 79 211 43z
m726 3 c38 -16 73 -77 74 -127 l0 -28 -105 0 -105 0 0 -30 c0 -44 24 -96 53
-115 33 -21 71 -11 100 27 16 20 28 27 40 22 24 -9 21 -27 -8 -62 -34 -40 -75
-55 -136 -50 -57 6 -95 30 -124 79 -25 43 -27 159 -3 204 18 33 64 79 88 88
29 11 91 7 126 -8z m234 -1 c0 -14 2 -14 22 0 28 20 77 20 105 1 12 -8 23 -11
25 -6 2 4 33 11 71 13 53 5 67 3 67 -8 0 -12 5 -12 30 1 49 25 107 20 141 -14
29 -29 29 -30 29 -149 0 -134 4 -152 31 -152 12 0 19 -7 19 -20 0 -19 -7 -20
-90 -20 -83 0 -90 1 -90 20 0 13 7 20 20 20 19 0 20 7 20 124 0 139 -4 156
-32 156 -59 0 -78 -44 -78 -177 0 -86 2 -95 20 -100 11 -3 20 -14 20 -24 0
-17 -9 -19 -90 -19 -82 0 -90 2 -90 19 0 13 8 21 23 23 21 3 22 7 25 118 1 63
0 125 -3 138 -8 34 -41 29 -48 -8 -12 -55 -92 -49 -99 7 l-3 28 -20 -30 c-17
-25 -20 -46 -20 -140 l0 -110 33 -3 c24 -2 32 -8 32 -23 0 -18 -8 -19 -111
-19 -100 0 -110 2 -107 18 2 9 13 18 26 20 22 3 22 6 22 138 0 134 0 135 -25
144 -46 18 -30 39 33 43 31 2 65 4 75 5 9 1 17 -5 17 -14z m-2832 -11 c-2 -10
-13 -19 -26 -21 -12 -2 -22 -6 -22 -10 -1 -12 65 -172 70 -172 8 0 60 142 60
163 0 10 -8 17 -20 17 -13 0 -20 7 -20 20 0 18 7 20 65 20 53 0 65 -3 65 -16
0 -9 -9 -23 -19 -32 -10 -10 -49 -98 -87 -197 -37 -99 -75 -192 -85 -206 -23
-33 -63 -44 -100 -29 -33 14 -44 41 -29 70 13 24 61 27 83 6 12 -13 16 -12 26
10 6 14 11 33 11 43 0 35 -111 286 -136 306 -44 37 -32 45 72 45 86 0 95 -2
92 -17z m-3314 -735 c13 -7 21 -6 26 2 8 13 47 10 43 -3 -2 -4 -3 -38 -3 -77
0 -63 -2 -70 -20 -70 -14 0 -22 10 -30 39 -16 60 -39 83 -85 83 -44 0 -65 -20
-65 -62 0 -31 30 -61 123 -121 69 -45 107 -97 107 -148 0 -33 -27 -83 -56
-105 -36 -26 -129 -33 -177 -13 -32 14 -37 14 -37 1 0 -7 -9 -14 -20 -14 -20
0 -21 5 -18 92 3 78 6 93 20 96 11 2 19 -5 22 -20 3 -13 7 -36 11 -51 15 -70
101 -102 145 -55 42 46 20 94 -72 156 -98 66 -119 91 -125 145 -8 71 23 115
96 137 29 9 86 3 115 -12z m361 -122 c56 -24 72 -84 30 -112 -16 -11 -25 -11
-45 -1 -20 11 -25 20 -24 50 1 30 -2 37 -18 37 -63 0 -99 -89 -79 -195 18 -94
85 -120 142 -54 16 18 32 27 41 24 24 -9 11 -40 -33 -80 -33 -30 -46 -35 -88
-35 -91 0 -161 79 -161 182 0 142 116 233 235 184z m323 -20 c26 -26 27 -30
30 -161 4 -127 5 -134 22 -125 13 7 21 7 25 0 3 -5 15 -10 26 -10 18 0 19 8
19 135 0 135 0 136 -25 145 -14 5 -25 16 -25 25 0 11 12 15 48 15 26 0 57 3
70 6 16 5 22 2 22 -10 0 -20 3 -20 42 0 37 19 101 14 127 -10 16 -14 21 -14
56 4 50 25 91 25 133 0 17 -11 33 -21 33 -22 1 -2 4 -66 8 -143 6 -135 7 -140
29 -143 14 -2 22 -10 22 -23 0 -17 -8 -19 -95 -19 -78 0 -95 3 -95 15 0 9 11
20 25 25 25 9 25 11 25 129 0 66 -3 126 -6 135 -9 23 -50 20 -73 -6 -27 -28
-33 -64 -29 -168 3 -79 4 -85 26 -88 14 -2 22 -10 22 -23 0 -17 -8 -19 -90
-19 -83 0 -90 1 -90 20 0 13 7 20 20 20 20 0 20 5 18 138 l-3 137 -29 0 c-52
0 -70 -39 -74 -160 l-4 -105 26 -10 c14 -5 26 -17 26 -25 0 -14 -15 -16 -102
-14 -57 0 -115 -2 -130 -6 -17 -4 -39 -1 -59 9 -27 14 -34 14 -60 1 -79 -41
-170 17 -155 100 8 42 30 61 113 94 62 25 68 31 71 59 5 45 -13 72 -47 72 -28
0 -29 -2 -24 -39 5 -33 2 -41 -17 -51 -49 -26 -92 15 -75 70 19 61 171 78 223
26z m845 23 c16 -9 22 -9 25 0 2 6 15 11 28 11 24 0 25 -2 22 -67 -3 -60 -5
-68 -24 -71 -16 -2 -23 5 -33 37 -13 44 -39 64 -74 59 -16 -2 -23 -11 -25 -30
-3 -23 4 -33 45 -60 26 -18 65 -49 86 -69 48 -47 51 -93 9 -140 -24 -27 -37
-33 -84 -37 -31 -2 -64 1 -77 7 -15 8 -21 9 -21 1 0 -6 -10 -10 -22 -8 -16 2
-23 10 -22 26 4 135 4 132 23 132 13 0 22 -13 32 -52 11 -43 19 -54 42 -62 37
-13 62 3 62 40 0 22 -10 35 -45 61 -98 71 -110 86 -110 135 0 45 21 77 60 91
27 10 81 7 103 -4z"/>
<path d="M5798 2384 c-5 -4 -8 -97 -8 -206 l0 -198 39 0 c60 0 98 18 123 58
20 32 23 50 23 142 0 114 -11 149 -55 182 -27 19 -110 35 -122 22z"/>
<path d="M8460 2251 c-5 -11 -10 -36 -10 -56 0 -46 15 -75 39 -75 23 0 31 19
31 71 0 47 -14 79 -35 79 -8 0 -19 -9 -25 -19z"/>
<path d="M7670 2151 c0 -133 7 -173 29 -169 9 2 23 18 31 36 11 23 21 31 35
30 16 -2 19 -10 17 -36 -1 -22 2 -32 12 -32 21 0 26 23 26 133 0 150 1 147
-81 147 l-69 0 0 -109z"/>
<path d="M8426 1932 c-10 -12 -16 -30 -14 -40 5 -27 54 -45 103 -38 49 8 78
34 73 68 -3 21 -9 23 -74 28 -65 5 -72 3 -88 -18z"/>
<path d="M1491 2244 c-12 -15 -21 -35 -21 -45 0 -16 8 -19 50 -19 47 0 50 2
50 26 0 63 -43 84 -79 38z"/>
<path d="M1827 2253 c-8 -10 -19 -30 -22 -45 l-7 -28 56 0 c61 0 63 3 42 55
-17 39 -43 46 -69 18z"/>
<path d="M3180 2102 c-68 -33 -79 -103 -17 -110 35 -4 59 33 55 86 l-3 40 -35
-16z"/>
<path d="M4572 2245 c-50 -64 -36 -253 20 -270 55 -18 83 33 83 152 -1 67 -4
88 -21 110 -28 38 -57 40 -82 8z"/>
<path d="M7021 2244 c-12 -15 -21 -35 -21 -45 0 -16 8 -19 50 -19 45 0 50 2
50 23 0 28 -26 67 -45 67 -7 0 -23 -12 -34 -26z"/>
<path d="M5911 1381 c-53 -53 -53 -221 0 -263 28 -23 35 -23 64 7 24 23 25 31
25 133 0 93 -3 111 -18 125 -24 22 -48 21 -71 -2z"/>
<path d="M1497 1403 c-2 -10 -14 -42 -26 -70 l-21 -53 55 0 54 0 -25 68 c-30
78 -30 78 -37 55z"/>
<path d="M2820 1368 c-18 -29 -21 -46 -18 -129 2 -79 7 -101 22 -118 29 -31
63 -27 86 12 27 43 28 176 2 227 -24 50 -64 53 -92 8z"/>
<path d="M980 1368 c-31 -51 -27 -58 36 -58 l57 0 -7 32 c-13 66 -54 78 -86
26z"/>
<path d="M2275 1227 c-36 -20 -40 -26 -40 -62 0 -35 3 -40 26 -43 39 -5 61 27
57 82 l-3 45 -40 -22z"/>
<path d="M4242 1375 c-50 -64 -36 -253 20 -270 55 -18 83 33 83 152 -1 67 -4
88 -21 110 -28 38 -57 40 -82 8z"/>
<path d="M5542 1375 c-50 -64 -36 -253 20 -270 55 -18 83 33 83 152 0 67 -4
87 -21 110 -28 38 -57 40 -82 8z"/>
<path d="M6281 1374 c-12 -15 -21 -35 -21 -45 0 -16 8 -19 51 -19 l52 0 -7 32
c-12 62 -42 74 -75 32z"/>
<path d="M1070 368 c-34 -13 -70 -48 -70 -69 0 -34 12 -49 40 -49 41 0 62 29
58 83 -3 43 -4 44 -28 35z"/>
</g>
</svg>
